<svg width="1184" height="357" viewBox="0 0 1184 357" fill="none" xmlns="http://www.w3.org/2000/svg">
<path d="M151.641 143H88.8281V136.672H105.469L87.8906 91.6719H41.25L24.375 136.672H37.5C38.4375 136.672 39.2969 136.75 40.0781 136.906C42.1094 137.219 43.125 139.25 43.125 143H0V136.672H15L66.3281 2.375H83.6719L138.984 136.672H146.016C146.953 136.672 147.812 136.75 148.594 136.906C150.625 137.219 151.641 139.25 151.641 143ZM85.0781 84.6406L64.2188 30.7344L44.0625 84.6406H85.0781ZM293.775 34.0156C293.775 37.1406 293.228 40.3438 292.134 43.625C288.228 54.5625 279.244 62.2969 265.181 66.8281C268.931 67.2969 272.525 68 275.962 68.9375C294.869 73.9375 304.322 85.1094 304.322 102.453C304.322 110.266 301.978 117.453 297.291 124.016C287.759 136.672 272.291 143 250.884 143H170.728V136.672H189.478V8.70312H170.728V2.375H246.666C255.259 2.375 262.916 3.3125 269.634 5.1875C285.728 9.875 293.775 19.4844 293.775 34.0156ZM233.541 8.70312H222.291V63.5469H235.416C238.228 63.5469 240.884 63.2344 243.384 62.6094C254.322 59.4844 259.791 50.5781 259.791 35.8906C259.634 18.0781 250.884 9.01563 233.541 8.70312ZM241.509 70.1094H222.291V136.672H237.994C240.025 136.672 242.056 136.516 244.087 136.203C260.337 133.859 268.462 122.062 268.462 100.812C268.462 96.125 267.759 91.75 266.353 87.6875C262.291 75.9688 254.009 70.1094 241.509 70.1094ZM407.784 0.03125C425.441 0.03125 440.831 4.79688 453.956 14.3281C472.237 27.7656 481.378 47.375 481.378 73.1562C481.378 94.4062 474.112 111.906 459.581 125.656C445.362 138.781 427.862 145.344 407.081 145.344C388.8 145.344 372.862 140.109 359.269 129.641C341.612 115.891 332.784 96.75 332.784 72.2188C332.784 50.8125 340.206 33.3125 355.05 19.7188C369.425 6.59375 387.003 0.03125 407.784 0.03125ZM407.784 138.547C414.972 138.547 420.987 136.984 425.831 133.859C438.331 125.891 444.581 105.266 444.581 71.9844C444.581 57.9219 443.409 46.125 441.066 36.5938C436.066 16.75 424.737 6.82812 407.081 6.82812C401.769 6.82812 397.003 7.76562 392.784 9.64062C377.316 16.2031 369.581 37.375 369.581 73.1562C369.581 91.9062 371.534 106.438 375.441 116.75C381.066 131.281 391.847 138.547 407.784 138.547ZM506.325 8.70312V2.375H576.638V8.70312H557.888V89.5625C557.888 98.4688 558.591 106.125 559.997 112.531C563.747 129.719 573.513 138.312 589.294 138.312C614.294 138.156 626.872 121.906 627.028 89.5625V8.70312H608.278V2.375H654.45V8.70312H635.7V88.1562C635.7 99.25 634.45 108.703 631.95 116.516C625.388 135.734 609.528 145.344 584.372 145.344C545.153 145.188 525.388 127.219 525.075 91.4375V8.70312H506.325ZM773.85 143H696.506V136.672H718.772V8.70312H714.787C709.475 8.70312 704.944 9.71875 701.194 11.75C695.725 14.875 691.272 21.4375 687.834 31.4375L680.569 52.5312H673.537L674.475 2.375H795.881L796.819 52.5312H789.787L782.522 31.4375C781.428 28.4687 780.412 25.8906 779.475 23.7031C774.787 13.7031 766.819 8.70312 755.569 8.70312H751.584V136.672H767.522C770.803 136.984 772.912 139.094 773.85 143ZM103.828 354H26.4844V347.672H48.75V219.703H44.7656C39.4531 219.703 34.9219 220.719 31.1719 222.75C25.7031 225.875 21.25 232.438 17.8125 242.438L10.5469 263.531H3.51562L4.45312 213.375H125.859L126.797 263.531H119.766L112.5 242.438C111.406 239.469 110.391 236.891 109.453 234.703C104.766 224.703 96.7969 219.703 85.5469 219.703H81.5625V347.672H97.5C100.781 347.984 102.891 350.094 103.828 354ZM219.712 354H149.4V347.672H168.15V219.703H149.4V213.375H219.712V219.703H200.962V278.062H260.494V219.703H241.744V213.375H312.056V219.703H293.306V347.672H305.728C309.009 347.984 311.119 350.094 312.056 354H241.744V347.672H260.494V285.094H200.962V347.672H213.384C216.666 347.984 218.775 350.094 219.712 354ZM453.956 258.375H447.159L442.003 242.203C441.534 240.797 440.987 239.391 440.362 237.984C435.519 225.797 426.691 219.703 413.878 219.703H387.394V278.062H432.394V285.094H387.394V347.672H413.878C416.847 347.672 419.659 347.359 422.316 346.734C431.222 344.391 437.706 337.203 441.769 325.172L447.159 309H453.956L453.019 354H335.831V347.672H354.581V219.703H335.831V213.375H453.019L453.956 258.375ZM642.834 354H565.491V347.672H587.756V219.703H583.772C578.459 219.703 573.928 220.719 570.178 222.75C564.709 225.875 560.256 232.438 556.819 242.438L549.553 263.531H542.522L543.459 213.375H664.866L665.803 263.531H658.772L651.506 242.438C650.412 239.469 649.397 236.891 648.459 234.703C643.772 224.703 635.803 219.703 624.553 219.703H620.569V347.672H636.506C639.787 347.984 641.897 350.094 642.834 354ZM806.531 258.375H799.734L794.578 242.203C794.109 240.797 793.562 239.391 792.938 237.984C788.094 225.797 779.266 219.703 766.453 219.703H739.969V278.062H784.969V285.094H739.969V347.672H766.453C769.422 347.672 772.234 347.359 774.891 346.734C783.797 344.391 790.281 337.203 794.344 325.172L799.734 309H806.531L805.594 354H688.406V347.672H707.156V219.703H688.406V213.375H805.594L806.531 258.375ZM983.119 354H920.306V347.672H936.947L919.369 302.672H872.728L855.853 347.672H868.978C869.916 347.672 870.775 347.75 871.556 347.906C873.588 348.219 874.603 350.25 874.603 354H831.478V347.672H846.478L897.806 213.375H915.15L970.463 347.672H977.494C978.431 347.672 979.291 347.75 980.072 347.906C982.103 348.219 983.119 350.25 983.119 354ZM916.556 295.641L895.697 241.734L875.541 295.641H916.556ZM1183.38 213.375V219.703H1164.63V347.672H1177.05C1180.33 347.984 1182.44 350.094 1183.38 354H1114.24V347.672H1132.99V236.344L1082.6 356.344H1078.38L1028.46 259.312V347.672H1040.88C1044.16 347.984 1046.27 350.094 1047.21 354H999.862V347.672H1018.61V219.703H999.862V213.375H1041.82L1091.03 314.156L1132.99 213.375H1183.38Z" fill="#6B3226" fill-opacity="0.1"/>
</svg>
