<svg width="1209" height="357" viewBox="0 0 1209 357" fill="none" xmlns="http://www.w3.org/2000/svg">
<path d="M79.2031 0.03125C96.8594 0.03125 112.25 4.79688 125.375 14.3281C143.656 27.7656 152.797 47.375 152.797 73.1562C152.797 94.4062 145.531 111.906 131 125.656C116.781 138.781 99.2812 145.344 78.5 145.344C60.2188 145.344 44.2812 140.109 30.6875 129.641C13.0312 115.891 4.20312 96.75 4.20312 72.2188C4.20312 50.8125 11.625 33.3125 26.4688 19.7188C40.8438 6.59375 58.4219 0.03125 79.2031 0.03125ZM79.2031 138.547C86.3906 138.547 92.4062 136.984 97.25 133.859C109.75 125.891 116 105.266 116 71.9844C116 57.9219 114.828 46.125 112.484 36.5938C107.484 16.75 96.1562 6.82812 78.5 6.82812C73.1875 6.82812 68.4219 7.76562 64.2031 9.64062C48.7344 16.2031 41 37.375 41 73.1562C41 91.9062 42.9531 106.438 46.8594 116.75C52.4844 131.281 63.2656 138.547 79.2031 138.547ZM177.744 8.70312V2.375H248.056V8.70312H229.306V89.5625C229.306 98.4688 230.009 106.125 231.416 112.531C235.166 129.719 244.931 138.312 260.712 138.312C285.712 138.156 298.291 121.906 298.447 89.5625V8.70312H279.697V2.375H325.869V8.70312H307.119V88.1562C307.119 99.25 305.869 108.703 303.369 116.516C296.806 135.734 280.947 145.344 255.791 145.344C216.572 145.188 196.806 127.219 196.494 91.4375V8.70312H177.744ZM416.441 143H346.128V136.672H364.878V8.70312H346.128V2.375H424.409C436.909 2.375 447.534 5.34375 456.284 11.2812C466.597 18.3125 471.753 27.6094 471.753 39.1719C471.753 42.6094 471.284 45.9688 470.347 49.25C466.597 62.5312 456.519 71.4375 440.112 75.9688L476.206 136.906H479.253C480.034 136.906 480.816 136.984 481.597 137.141C484.097 137.609 485.347 139.562 485.347 143L444.097 143.234L409.175 78.7812H397.691V136.672H416.441V143ZM410.347 8.70312H397.691V71.75H412.222C416.909 71.75 421.05 70.5781 424.644 68.2344C432.769 63.0781 436.831 53.7812 436.831 40.3438C436.831 35.9687 436.284 31.75 435.191 27.6875C431.441 15.0312 423.159 8.70312 410.347 8.70312ZM65.6094 219.703H52.25V285.094H64.6719C81.3906 284.938 89.9062 274.078 90.2188 252.516C90.0625 230.953 81.8594 220.016 65.6094 219.703ZM75.6875 354H0.6875V347.672H19.4375V219.703H0.6875V213.375H78.9688C89.2812 213.375 98.1875 215.172 105.688 218.766C118.812 225.172 125.375 235.719 125.375 250.406C125.375 256.344 124.359 261.734 122.328 266.578C115.453 283.609 98.5 292.125 71.4688 292.125H52.25V347.672H69.3594C72.6406 347.984 74.75 350.094 75.6875 354ZM293.759 354H230.947V347.672H247.587L230.009 302.672H183.369L166.494 347.672H179.619C180.556 347.672 181.416 347.75 182.197 347.906C184.228 348.219 185.244 350.25 185.244 354H142.119V347.672H157.119L208.447 213.375H225.791L281.103 347.672H288.134C289.072 347.672 289.931 347.75 290.712 347.906C292.744 348.219 293.759 350.25 293.759 354ZM227.197 295.641L206.337 241.734L186.181 295.641H227.197ZM383.159 354H312.847V347.672H331.597V219.703H312.847V213.375H391.128C403.628 213.375 414.253 216.344 423.003 222.281C433.316 229.312 438.472 238.609 438.472 250.172C438.472 253.609 438.003 256.969 437.066 260.25C433.316 273.531 423.237 282.438 406.831 286.969L442.925 347.906H445.972C446.753 347.906 447.534 347.984 448.316 348.141C450.816 348.609 452.066 350.562 452.066 354L410.816 354.234L375.894 289.781H364.409V347.672H383.159V354ZM377.066 219.703H364.409V282.75H378.941C383.628 282.75 387.769 281.578 391.362 279.234C399.487 274.078 403.55 264.781 403.55 251.344C403.55 246.969 403.003 242.75 401.909 238.688C398.159 226.031 389.878 219.703 377.066 219.703ZM570.294 354H492.95V347.672H515.216V219.703H511.231C505.919 219.703 501.388 220.719 497.638 222.75C492.169 225.875 487.716 232.438 484.278 242.438L477.013 263.531H469.981L470.919 213.375H592.325L593.263 263.531H586.231L578.966 242.438C577.872 239.469 576.856 236.891 575.919 234.703C571.231 224.703 563.263 219.703 552.013 219.703H548.028V347.672H563.966C567.247 347.984 569.356 350.094 570.294 354ZM718.287 219.703V213.375H765.631V219.703H746.881V352.828L733.522 355.172L643.287 249.938V347.672H656.881C660.162 347.984 662.272 350.094 663.209 354H614.694V347.672H633.444V219.703H614.694V213.375H654.303L737.037 310.406V219.703H718.287ZM904.016 258.375H897.219L892.062 242.203C891.594 240.797 891.047 239.391 890.422 237.984C885.578 225.797 876.75 219.703 863.938 219.703H837.453V278.062H882.453V285.094H837.453V347.672H863.938C866.906 347.672 869.719 347.359 872.375 346.734C881.281 344.391 887.766 337.203 891.828 325.172L897.219 309H904.016L903.078 354H785.891V347.672H804.641V219.703H785.891V213.375H903.078L904.016 258.375ZM1003.96 354H933.65V347.672H952.4V219.703H933.65V213.375H1011.93C1024.43 213.375 1035.06 216.344 1043.81 222.281C1054.12 229.312 1059.28 238.609 1059.28 250.172C1059.28 253.609 1058.81 256.969 1057.87 260.25C1054.12 273.531 1044.04 282.438 1027.63 286.969L1063.73 347.906H1066.78C1067.56 347.906 1068.34 347.984 1069.12 348.141C1071.62 348.609 1072.87 350.562 1072.87 354L1031.62 354.234L996.697 289.781H985.213V347.672H1003.96V354ZM997.869 219.703H985.213V282.75H999.744C1004.43 282.75 1008.57 281.578 1012.17 279.234C1020.29 274.078 1024.35 264.781 1024.35 251.344C1024.35 246.969 1023.81 242.75 1022.71 238.688C1018.96 226.031 1010.68 219.703 997.869 219.703ZM1208.44 314.859C1208.44 325.172 1204.77 333.922 1197.43 341.109C1186.8 351.266 1171.57 356.344 1151.72 356.344C1134.69 356.344 1120.16 352.359 1108.13 344.391C1108.13 347.047 1107.97 349.156 1107.66 350.719C1106.88 353.219 1104.38 354.469 1100.16 354.469V304.781H1109.3C1109.93 313.062 1111.64 320.406 1114.46 326.812C1121.18 341.969 1132.82 349.547 1149.38 349.547C1153.75 349.547 1157.74 348.922 1161.33 347.672C1171.33 343.922 1176.33 336.422 1176.33 325.172C1176.33 321.891 1175.63 318.688 1174.22 315.562C1170.94 309 1162.58 302.203 1149.14 295.172C1134.14 287.516 1125.71 283.062 1123.83 281.812C1108.99 272.594 1101.57 261.5 1101.57 248.531C1101.57 239.781 1104.61 232.203 1110.71 225.797C1120.24 215.953 1134.46 211.031 1153.36 211.031C1167.74 211.031 1181.41 214.078 1194.38 220.172C1194.38 218.766 1194.46 217.516 1194.61 216.422C1195.39 213.453 1197.97 211.969 1202.35 211.969V254.391H1193.21C1193.05 245.953 1191.02 238.688 1187.11 232.594C1180.71 222.906 1171.1 218.062 1158.28 218.062C1155 218.062 1151.88 218.531 1148.91 219.469C1140 222.438 1135.55 228.531 1135.55 237.75C1135.55 241.344 1136.33 244.781 1137.89 248.062C1141.18 254.781 1149.38 261.578 1162.5 268.453C1176.88 276.109 1185.08 280.484 1187.11 281.578C1201.33 290.797 1208.44 301.891 1208.44 314.859Z" fill="#6B3226" fill-opacity="0.1"/>
</svg>
